<?xml version="1.0" encoding="utf-8"?>
<!-- Generator: Adobe Illustrator 15.0.0, SVG Export Plug-In . SVG Version: 6.00 Build 0)  -->
<!DOCTYPE svg PUBLIC "-//W3C//DTD SVG 1.1//EN" "http://www.w3.org/Graphics/SVG/1.1/DTD/svg11.dtd">
<svg version="1.1" id="Слой_1" xmlns="http://www.w3.org/2000/svg" xmlns:xlink="http://www.w3.org/1999/xlink" x="0px" y="0px"
	 width="100px" height="100px" viewBox="0 0 100 100" enable-background="new 0 0 100 100" xml:space="preserve">
<g>
	<path fill="#D9CEB2" stroke="rgba(56, 57, 57, 0.95)" stroke-width="2" stroke-miterlimit="10" d="M75.25,35.875
		C75.25,20.756,62.994,8.5,47.875,8.5S20.5,20.756,20.5,35.875c0,3.14,0.536,6.153,1.509,8.962l2.241,22.538
		c0,0,3.905-4.367,7.479-9.398c2.367,1.732,5.026,3.083,7.884,3.988C37.398,64.42,36,69.334,36,69.334
		c3.833-5.333,4.583-4.334,6.833-4.75s5,3.916,5,3.916c-0.843-2.397-1.667-4.137-2.466-5.373c0.827,0.075,1.661,0.123,2.507,0.123
		c1.757,0,3.473-0.169,5.137-0.485c-1.517,2.528-2.429,5.735-2.429,5.735c3.833-5.333,4.583-4.334,6.833-4.75
		c2.251-0.416,5.001,3.916,5.001,3.916c-1.218-3.464-2.399-5.577-3.515-6.737c2.49-1.1,4.788-2.556,6.824-4.31
		C69.748,61.208,73.875,65,73.875,65L74,44.333l0.095-0.584C74.843,41.255,75.25,38.613,75.25,35.875z"/>
	<path fill="#D9CEB2" stroke="rgba(56, 57, 57, 0.95)" stroke-width="2" stroke-miterlimit="10" d="M67.625,20.625c-0.25-3.875,4.625-6,4.625-6
		l-4.5,0.25l2.5-4L67,11.25c0,0-6,1.5-9.25,7.75"/>
	<path fill="#D9CEB2" stroke="rgba(56, 57, 57, 0.95)" stroke-width="2" stroke-miterlimit="10" d="M27.5,21.375c0.25-3.875-4.625-6-4.625-6
		l4.5,0.25l-2.5-4L28.125,12c0,0,6,1.5,9.25,7.75"/>
	<ellipse fill="#FFFFFF" stroke="rgba(56, 57, 57, 0.95)" stroke-miterlimit="10" cx="35.375" cy="28.125" rx="8.625" ry="8.5"/>
	<ellipse fill="#FFFFFF" stroke="rgba(56, 57, 57, 0.95)" stroke-miterlimit="10" cx="60.125" cy="27.375" rx="8.625" ry="8.5"/>
	<ellipse fill="none" stroke="rgba(56, 57, 57, 0.95)" stroke-width="0.5" stroke-miterlimit="10" cx="62.056" cy="29.017" rx="3.569" ry="3.518"/>
	<ellipse fill="none" stroke="rgba(56, 57, 57, 0.95)" stroke-width="0.5" stroke-miterlimit="10" cx="37.209" cy="29.733" rx="3.569" ry="3.517"/>
	<ellipse fill="#7A6A53" cx="37.198" cy="29.855" rx="2.177" ry="2.145"/>
	<ellipse fill="#7A6A53" cx="61.948" cy="29.105" rx="2.177" ry="2.145"/>
	<path fill="none" stroke="rgba(56, 57, 57, 0.95)" stroke-width="2" stroke-miterlimit="10" d="M51.799,38.961
		c0.432-0.508,0.701-1.158,0.701-1.877c0-1.611-1.306-2.917-2.917-2.917c-1.611,0-2.917,1.306-2.917,2.917
		c0,0.707,0.262,1.347,0.681,1.852l2.319,5.731L51.799,38.961z"/>
	<g>
		<path fill="#D9CEB2" stroke="rgba(56, 57, 57, 0.95)" stroke-width="2" d="M36.378,85.956c0,2.643-0.951,4.725-2.854,6.246
			c-1.901,1.521-4.548,2.282-7.938,2.282c-3.123,0-5.886-0.587-8.288-1.762v-5.766c1.975,0.881,3.646,1.501,5.015,1.862
			c1.368,0.359,2.619,0.54,3.754,0.54c1.361,0,2.405-0.261,3.133-0.78c0.728-0.521,1.092-1.295,1.092-2.322
			c0-0.574-0.16-1.085-0.48-1.532c-0.321-0.446-0.791-0.877-1.412-1.291c-0.62-0.413-1.885-1.074-3.793-1.981
			c-1.789-0.842-3.13-1.648-4.024-2.423c-0.895-0.773-1.608-1.675-2.142-2.702c-0.534-1.028-0.801-2.229-0.801-3.604
			c0-2.59,0.877-4.625,2.632-6.106s4.181-2.223,7.277-2.223c1.521,0,2.973,0.181,4.354,0.541c1.381,0.36,2.825,0.867,4.334,1.521
			l-2.002,4.825c-1.562-0.641-2.853-1.088-3.874-1.342c-1.021-0.253-2.025-0.381-3.013-0.381c-1.175,0-2.076,0.274-2.703,0.821
			c-0.627,0.548-0.941,1.261-0.941,2.142c0,0.548,0.126,1.025,0.38,1.432c0.253,0.407,0.657,0.801,1.211,1.182
			c0.553,0.38,1.865,1.064,3.934,2.052c2.735,1.309,4.611,2.619,5.626,3.934C35.87,82.437,36.378,84.048,36.378,85.956z"/>
		<path fill="#D9CEB2" stroke="rgba(56, 57, 57, 0.95)" stroke-width="2" d="M70.19,94.084h-7.066l-3.965-15.375
			c-0.146-0.547-0.396-1.678-0.75-3.394c-0.354-1.715-0.558-2.865-0.611-3.453c-0.08,0.721-0.279,1.879-0.6,3.474
			s-0.568,2.732-0.741,3.413l-3.944,15.335h-7.047l-7.467-29.269h6.105l3.744,15.976c0.653,2.95,1.128,5.505,1.422,7.667
			c0.08-0.76,0.263-1.938,0.55-3.533c0.287-1.595,0.558-2.832,0.812-3.713l4.264-16.396h5.865l4.265,16.396
			c0.187,0.733,0.421,1.854,0.7,3.363c0.281,1.508,0.494,2.803,0.641,3.883c0.134-1.041,0.348-2.338,0.641-3.894
			c0.294-1.555,0.561-2.813,0.801-3.773l3.725-15.976h6.105L70.19,94.084z"/>
		<path fill="#D9CEB2" stroke="rgba(56, 57, 57, 0.95)" stroke-width="2" d="M81.321,94.084V64.815h6.206v29.269H81.321z"/>
	</g>
	<path fill="none" stroke="rgba(56, 57, 57, 0.95)" stroke-width="2" stroke-miterlimit="10" d="M34.917,48.333c0,0,1.25,3.75-3.25,9.833"/>
	<path fill="none" stroke="rgba(56, 57, 57, 0.95)" stroke-width="2" stroke-miterlimit="10" d="M62.991,47.333c0,0-1.25,3.751,3.25,9.833"/>
	<path fill="none" stroke="rgba(56, 57, 57, 0.95)" stroke-width="2" stroke-miterlimit="10" d="M39.612,61.965c0,0,3.29-4.211,5.755,1.162"/>
	<path fill="none" stroke="rgba(56, 57, 57, 0.95)" stroke-width="2" stroke-miterlimit="10" d="M59.25,61.25c0,0-3.772-3.858-6.238,1.515"/>
	<circle fill="none" stroke="#FFFFFF" stroke-miterlimit="10" cx="36.938" cy="28.813" r="0.5"/>
	<circle fill="none" stroke="#FFFFFF" stroke-miterlimit="10" cx="61.063" cy="28.094" r="0.5"/>
</g>
</svg>
